<svg xmlns="http://www.w3.org/2000/svg" version="1.1" xmlns:xlink="http://www.w3.org/1999/xlink" xmlns:svgjs="http://svgjs.dev/svgjs" width="1000" height="545" viewBox="0 0 1000 545"><g transform="matrix(1,0,0,1,-0.606060330734465,0.09918924296550813)"><svg viewBox="0 0 396 216" data-background-color="#ffffff" preserveAspectRatio="xMidYMid meet" height="545" width="1000" xmlns="http://www.w3.org/2000/svg" xmlns:xlink="http://www.w3.org/1999/xlink"><g id="tight-bounds" transform="matrix(1,0,0,1,0.24000010902915392,-0.039311699964315494)"><svg viewBox="0 0 395.52 216.07861991139885" height="216.07861991139885" width="395.52"><g><svg viewBox="0 0 395.52 216.07861991139885" height="216.07861991139885" width="395.52"><g transform="matrix(1,0,0,1,0,133.54525574954914)"><svg viewBox="0 0 395.52 82.5333641618497" height="82.5333641618497" width="395.52"><g id="textblocktransform"><svg viewBox="0 0 395.52 82.5333641618497" height="82.5333641618497" width="395.52" id="textblock"><g><svg viewBox="0 0 395.52 82.5333641618497" height="82.5333641618497" width="395.52"><g transform="matrix(1,0,0,1,0,0)"><svg width="395.52" viewBox="3.9000000953674316 -35.5 172.98001098632812 36.099998474121094" height="82.5333641618497" data-palette-color="#800000"><path d="M22.8 0L18.55-12.4Q17.65-12.25 16.55-12.25L16.55-12.25 6.7-12.25 6.7 0 3.9 0 3.9-35 16.2-35Q20.95-35 23.28-32.1 25.6-29.2 25.6-24.3L25.6-24.3Q25.6-20.55 24.78-17.65 23.95-14.75 21.2-13.25L21.2-13.25 25.65 0 22.8 0ZM16.6-15Q19.4-15 20.78-16.5 22.15-18 22.48-19.9 22.8-21.8 22.8-24.15L22.8-24.15Q22.8-28.25 21.1-30.3 19.4-32.35 16.4-32.35L16.4-32.35 6.7-32.35 6.7-15 16.6-15ZM33.8-32.15Q33.15-32.15 32.62-32.68 32.1-33.2 32.1-33.85L32.1-33.85Q32.1-34.5 32.6-35 33.1-35.5 33.8-35.5L33.8-35.5Q34.5-35.5 34.97-35.02 35.45-34.55 35.45-33.85L35.45-33.85Q35.45-33.15 34.95-32.65 34.45-32.15 33.8-32.15L33.8-32.15ZM32.35 0L32.35-25.05 35.15-25.05 35.15 0 32.35 0ZM43.35-17.3Q43.35-22.55 47.6-24.5L47.6-24.5Q49.65-25.45 52.5-25.45L52.5-25.45Q54.35-25.45 56.07-25 57.8-24.55 59-23.7L59-23.7 59-35 61.8-35 61.8 0 59.05 0.25Q55.8 0.6 53.95 0.6L53.95 0.6Q52.1 0.6 50.47 0.25 48.85-0.1 47.25-0.9L47.25-0.9Q45.45-1.8 44.4-3.55 43.35-5.3 43.35-7.85L43.35-7.85 43.35-17.3ZM59-21.25Q57.65-22 55.9-22.48 54.15-22.95 52.45-22.95L52.45-22.95Q49.65-22.95 47.87-21.58 46.1-20.2 46.1-17.15L46.1-17.15 46.1-7.8Q46.1-1.95 54.15-1.95L54.15-1.95Q56.05-1.95 59-2.4L59-2.4 59-21.25ZM81.94-1.75Q80.14-0.6 77.84 0 75.54 0.6 73.24 0.6L73.24 0.6Q69.54 0.6 67.37-1.23 65.19-3.05 65.19-6.7L65.19-6.7 65.19-16.95Q65.19-21 67.72-23.25 70.24-25.5 74.39-25.5L74.39-25.5Q78.54-25.5 80.87-23.28 83.19-21.05 83.19-17.1L83.19-17.1 83.19-10.6 67.99-9.75 67.99-6.7Q67.99-4.3 69.54-3.1 71.09-1.9 73.59-1.9L73.59-1.9Q77.09-1.9 80.84-3.9L80.84-3.9 81.94-1.75ZM80.39-17.45Q80.39-20.55 78.44-21.83 76.49-23.1 74.34-23.1L74.34-23.1Q71.59-23.1 69.79-21.6 67.99-20.1 67.99-16.9L67.99-16.9 67.99-12.5 80.39-13.1 80.39-17.45ZM89.84-8.9Q89.99-7.2 91.12-5.65 92.24-4.1 94.22-3.13 96.19-2.15 98.74-2.15L98.74-2.15Q102.59-2.15 105.17-3.88 107.74-5.6 107.74-9.35L107.74-9.35Q107.74-11.55 106.49-13.03 105.24-14.5 103.39-15.38 101.54-16.25 98.34-17.4L98.34-17.4Q94.89-18.6 92.82-19.63 90.74-20.65 89.32-22.4 87.89-24.15 87.89-26.9L87.89-26.9Q87.89-29.1 89.14-31.08 90.39-33.05 92.92-34.27 95.44-35.5 99.14-35.5L99.14-35.5Q101.59-35.5 103.19-35.15 104.79-34.8 106.44-34L106.44-34 105.59-31.35Q102.74-32.8 99.24-32.8L99.24-32.8Q95.39-32.8 93.09-31.2 90.79-29.6 90.79-26.75L90.79-26.75Q90.79-24.95 91.94-23.73 93.09-22.5 94.77-21.75 96.44-21 99.44-19.95L99.44-19.95Q103.09-18.7 105.34-17.63 107.59-16.55 109.17-14.58 110.74-12.6 110.74-9.6L110.74-9.6Q110.74-5 107.82-2.23 104.89 0.55 98.79 0.55L98.79 0.55Q95.09 0.55 92.47-0.83 89.84-2.2 88.47-4.38 87.09-6.55 86.99-8.9L86.99-8.9 89.84-8.9ZM131.09-0.3Q127.99 0.5 125.09 0.5L125.09 0.5Q122.39 0.5 120.59-0.1L120.59-0.1Q117.64-1.1 116.31-3.18 114.99-5.25 114.99-9L114.99-9 114.99-15.4Q114.99-20.35 117.59-22.93 120.19-25.5 124.29-25.5L124.29-25.5Q127.54-25.5 130.99-23.9L130.99-23.9 130.19-21.85Q127.34-23 124.69-23L124.69-23Q121.59-23 119.69-21.23 117.79-19.45 117.79-15.7L117.79-15.7 117.79-8.45Q117.79-5 119.86-3.45 121.94-1.9 125.39-1.9L125.39-1.9Q127.64-1.9 130.49-2.55L130.49-2.55 131.09-0.3ZM153.44 0Q148.03 0.55 145.64 0.55L145.64 0.55Q140.39 0.55 137.28-1.4 134.19-3.35 134.19-8.45L134.19-8.45 134.19-12.6Q134.19-17.55 137.64-19.25L137.64-19.25Q139.28-20.1 141.84-20.1L141.84-20.1Q144.19-20.1 146.59-19.33 148.99-18.55 150.64-17.3L150.64-17.3Q150.64-20.05 149.03-21.68 147.44-23.3 142.89-23.3L142.89-23.3 143.03-25.45Q147.84-25.45 150.11-23.93 152.39-22.4 152.91-20.3 153.44-18.2 153.44-14.9L153.44-14.9 153.44 0ZM150.64-15.15Q148.59-16.1 146.26-16.8 143.94-17.5 141.99-17.5L141.99-17.5Q136.94-17.5 136.94-12.45L136.94-12.45 136.94-8.1Q136.94-4.85 139.19-3.38 141.44-1.9 145.59-1.9L145.59-1.9Q147.74-1.9 150.64-2.3L150.64-2.3 150.64-15.15ZM174.13 0L174.13-17.15Q174.13-20.2 172.36-21.58 170.58-22.95 167.78-22.95L167.78-22.95Q166.08-22.95 164.33-22.48 162.58-22 161.23-21.25L161.23-21.25 161.23 0 158.43 0 158.43-25.05 161.23-25.05 161.03-23.35Q162.23-24.4 164.08-24.93 165.93-25.45 167.93-25.45L167.93-25.45Q170.68-25.45 172.63-24.55L172.63-24.55Q174.63-23.65 175.76-21.85 176.88-20.05 176.88-17.3L176.88-17.3 176.88 0 174.13 0Z" opacity="1" transform="matrix(1,0,0,1,0,0)" fill="#800000" class="wordmark-text-0" data-fill-palette-color="primary" id="text-0"></path></svg></g></svg></g></svg></g></svg></g><g transform="matrix(1,0,0,1,140.72944536416185,0)"><svg viewBox="0 0 114.06110927167632 114.0611092716763" height="114.0611092716763" width="114.06110927167632"><g><svg></svg></g><g id="icon-0"><svg viewBox="0 0 114.06110927167632 114.0611092716763" height="114.0611092716763" width="114.06110927167632"><g><path xmlns="http://www.w3.org/2000/svg" d="M34.218 114.061c-18.898 0-34.218-15.32-34.218-34.218v-45.625c0-18.898 15.32-34.218 34.218-34.218h45.625c18.898 0 34.218 15.32 34.218 34.218v45.625c0 18.898-15.32 34.218-34.218 34.218z" fill="#800000" fill-rule="nonzero" stroke="none" stroke-width="1" stroke-linecap="butt" stroke-linejoin="miter" stroke-miterlimit="10" stroke-dasharray="" stroke-dashoffset="0" font-family="none" font-weight="none" font-size="none" text-anchor="none" style="mix-blend-mode: normal" data-fill-palette-color="accent"></path></g><g transform="matrix(1,0,0,1,22.81222185433527,31.06221531637567)"><svg viewBox="0 0 68.43666556300577 51.93667863892496" height="51.93667863892496" width="68.43666556300577"><g><svg xmlns="http://www.w3.org/2000/svg" xmlns:xlink="http://www.w3.org/1999/xlink" version="1.1" x="0" y="0" viewBox="1.1000003814697266 13 98.30000305175781 74.60000610351562" style="enable-background:new 0 0 100 100;" xml:space="preserve" height="51.93667863892496" width="68.43666556300577" class="icon-s-0" data-fill-palette-color="quaternary" id="s-0"><path d="M90.6 37.3c0-0.1 0-0.1 0-0.2h7.7v-4.6h-8.4C87.3 21.3 77.2 13 65.2 13H35.5c-12 0-22.1 8.4-24.8 19.6H2.3v4.6H10c0 0 0 0 0 0-5.4 3.5-8.9 9.6-8.9 16.5V56c0 5.6 2.4 10.7 6.2 14.3v8.9c0 4.6 3.7 8.4 8.4 8.4h7.2c4.6 0 8.4-3.7 8.4-8.4v-3.5h39.2v3.5c0 4.6 3.7 8.4 8.4 8.4H86c4.6 0 8.4-3.7 8.4-8.4V69c3.1-3.5 5-8 5-13v-2.4C99.3 46.8 95.8 40.9 90.6 37.3zM35.5 17.5H48l0 2h-4.9v4.4h14v-4.4h-4.8l0-2h12.8c10.3 0 18.9 7.5 20.6 17.4-1.6-0.5-3.4-0.9-5.2-1-1.3-5.5-6.2-9.5-12-9.5-5.8 0-10.7 4.1-12 9.5H20.8c-2 0-4 0.3-5.9 0.9C16.6 25 25.2 17.5 35.5 17.5zM76 33.9H61.1c1.1-3 4.1-5.1 7.4-5.1C72 28.8 74.9 30.9 76 33.9zM11.9 79.2v-5.7c2.7 1.4 5.7 2.2 8.9 2.2h2.1c0 1.6-0.2 5.6-1.7 7.3h-5.6C13.6 83 11.9 81.3 11.9 79.2zM89.8 79.2c0 2.1-1.7 3.8-3.8 3.8h-6.8c-1.4-1.8-1.6-5.7-1.7-7.3h2.1c3.7 0 7.2-1.1 10.2-2.9V79.2zM94.7 56c0 8.3-6.8 15.1-15.1 15.1H20.8c-8.3 0-15.1-6.8-15.1-15.1v-2.4c0-8.3 6.8-15.1 15.1-15.1h58.8c8.3 0 15.1 6.8 15.1 15.1V56z" fill="#ffffff" data-fill-palette-color="quaternary"></path><circle cx="23.5" cy="55" r="5.4" fill="#ffffff" data-fill-palette-color="quaternary"></circle><circle cx="78" cy="55" r="5.4" fill="#ffffff" data-fill-palette-color="quaternary"></circle></svg></g></svg></g></svg></g></svg></g><g></g></svg></g><defs></defs></svg><rect width="395.52" height="216.07861991139885" fill="none" stroke="none" visibility="hidden"></rect></g></svg></g></svg>